<?xml version="1.0" standalone="no"?>
<!DOCTYPE svg PUBLIC "-//W3C//DTD SVG 20010904//EN"
 "http://www.w3.org/TR/2001/REC-SVG-20010904/DTD/svg10.dtd">
<svg version="1.0" xmlns="http://www.w3.org/2000/svg"
 width="928.000000pt" height="928.000000pt" viewBox="0 0 928.000000 928.000000"
 preserveAspectRatio="xMidYMid meet">
<metadata>
Created by potrace 1.11, written by Peter Selinger 2001-2013
</metadata>
<g transform="translate(0.000000,928.000000) scale(0.100000,-0.100000)"
fill="#000000" stroke="none">
<path d="M478 7760 c262 -264 477 -480 477 -480 0 0 267 -267 593 -595 l592
-594 1 -418 c1 -230 0 -422 -1 -428 -1 -5 -1 -50 0 -100 0 -49 1 -99 0 -110
-2 -29 -2 -24 -2 -230 1 -104 1 -199 2 -210 1 -11 1 -27 1 -35 0 -8 0 -69 0
-135 1 -66 1 -126 0 -132 0 -7 0 -55 0 -105 0 -51 0 -102 -1 -113 -2 -29 -2
-24 -2 -230 1 -104 1 -199 2 -210 1 -11 1 -26 1 -32 -1 -16 -1 -139 0 -155 0
-7 0 -310 -1 -673 -2 -749 -2 -1031 0 -1060 1 -11 1 -27 1 -35 0 -8 0 -69 0
-135 1 -66 1 -126 0 -132 0 -7 0 -53 0 -103 0 -49 0 -98 0 -107 -2 -80 1 -147
5 -154 2 -4 1609 -8 3569 -7 l3565 0 0 3599 0 3599 -4640 0 -4640 0 478 -480z"/>
</g>
</svg>
